<?xml version="1.0" encoding="UTF-8"?>
<svg width="40px" height="40px" viewBox="0 0 40 40" version="1.1" xmlns="http://www.w3.org/2000/svg" xmlns:xlink="http://www.w3.org/1999/xlink">
    <title>doj-icon-us-capitol</title>
    <g id="justice.gov" stroke="none" stroke-width="1" fill="none" fill-rule="evenodd">
        <g id="doj-icon-example" transform="translate(-362.000000, -637.000000)">
            <g id="action-center---white-bg" transform="translate(27.125226, 47.000000)">
                <g id="column-2" transform="translate(334.874774, 82.000000)">
                    <g id="doj-icon-us-capitol" transform="translate(0.000000, 508.000000)">
                        <circle id="Oval" fill="#162E51" cx="20" cy="20" r="20"></circle>
                        <rect id="Rectangle" stroke="#FFBE2E" stroke-width="1.25" x="18.875" y="9.625" width="2.25" height="2.75" rx="1"></rect>
                        <rect id="Rectangle-Copy-40" stroke="#FFBE2E" x="19.75" y="7.5" width="1" height="2" rx="0.5"></rect>
                        <g id="base" transform="translate(9.250000, 12.666766)">
                            <path d="M4.7,5.83323404 C5.18456261,1.94441135 7.19031865,0 10.7172681,0 C14.2442176,0 16.2384615,1.94441135 16.7,5.83323404" id="Line-4" stroke="#FFBE2E" stroke-width="1.5" stroke-linecap="round"></path>
                            <ellipse id="Oval" fill="#FFBE2E" cx="7.625" cy="8.63323404" rx="1" ry="1"></ellipse>
                            <ellipse id="Oval-Copy-7" fill="#FFBE2E" cx="13.725" cy="8.63323404" rx="1" ry="1"></ellipse>
                            <ellipse id="Oval-Copy-6" fill="#FFBE2E" cx="10.675" cy="8.63323404" rx="1" ry="1"></ellipse>
                            <rect id="Rectangle-Copy-28" stroke="#FFBE2E" stroke-width="1.5" x="0.75" y="17.083234" width="20" height="1" rx="0.5"></rect>
                            <rect id="Rectangle-Copy-32" stroke="#FFBE2E" stroke-width="1.5" x="0.75" y="11.083234" width="20" height="1" rx="0.5"></rect>
                            <rect id="Rectangle-Copy-39" stroke="#FFBE2E" stroke-width="1.5" x="3.75" y="6.08323404" width="14" height="1" rx="0.5"></rect>
                            <rect id="Rectangle-Copy-23" fill="#FFBE2E" x="1" y="10.333234" width="1.5" height="7"></rect>
                            <rect id="Rectangle-Copy-33" fill="#FFBE2E" x="4" y="6.33323404" width="1.5" height="11"></rect>
                            <rect id="Rectangle-Copy-34" fill="#FFBE2E" x="7" y="10.333234" width="1.5" height="7"></rect>
                            <rect id="Rectangle-Copy-35" fill="#FFBE2E" x="10" y="10.333234" width="1.5" height="7"></rect>
                            <rect id="Rectangle-Copy-36" fill="#FFBE2E" x="13" y="10.333234" width="1.5" height="7"></rect>
                            <rect id="Rectangle-Copy-37" fill="#FFBE2E" x="16" y="6.33323404" width="1.5" height="11"></rect>
                            <rect id="Rectangle-Copy-38" fill="#FFBE2E" x="19" y="10.333234" width="1.5" height="7"></rect>
                        </g>
                    </g>
                </g>
            </g>
        </g>
    </g>
</svg>