<?xml version="1.0" encoding="UTF-8"?>
<svg width="40px" height="40px" viewBox="0 0 40 40" version="1.1" xmlns="http://www.w3.org/2000/svg" xmlns:xlink="http://www.w3.org/1999/xlink">
    <title>doj-icon-missing-persons</title>
    <g id="justice.gov" stroke="none" stroke-width="1" fill="none" fill-rule="evenodd">
        <g id="doj-icon-example" transform="translate(-32.000000, -565.000000)">
            <g id="action-center---white-bg" transform="translate(27.125226, 47.000000)">
                <g id="column-1" transform="translate(0.000000, 82.000000)">
                    <g id="doj-icon-missing-persons" transform="translate(4.874774, 436.000000)">
                        <circle id="Oval" fill="#162E51" cx="20" cy="20" r="20"></circle>
                        <g id="components/icons/account_circle" transform="translate(9.000000, 9.000000)" fill="#FFBE2E">
                            <path d="M9.5,1.58333333 C5.13,1.58333333 1.58333333,5.13 1.58333333,9.5 C1.58333333,13.87 5.13,17.4166667 9.5,17.4166667 C13.87,17.4166667 17.4166667,13.87 17.4166667,9.5 C17.4166667,5.13 13.87,1.58333333 9.5,1.58333333 Z M9.5,3.95833333 C10.8141667,3.95833333 11.875,5.01916667 11.875,6.33333333 C11.875,7.6475 10.8141667,8.70833333 9.5,8.70833333 C8.18583333,8.70833333 7.125,7.6475 7.125,6.33333333 C7.125,5.01916667 8.18583333,3.95833333 9.5,3.95833333 Z M9.5,15.2 C7.52083333,15.2 5.77125,14.1866667 4.75,12.6508333 C4.77375,11.0754167 7.91666667,10.2125 9.5,10.2125 C11.0754167,10.2125 14.22625,11.0754167 14.25,12.6508333 C13.22875,14.1866667 11.4791667,15.2 9.5,15.2 Z" id="Fill"></path>
                        </g>
                        <path d="M25.0111092,22.8099167 C25.9054051,22.8099167 26.6303751,23.5348868 26.6303751,24.4291827 L26.6303751,29.2869806 C26.6303751,30.1812765 25.9054051,30.9062466 25.0111092,30.9062466 C24.1168132,30.9062466 23.3918432,30.1812765 23.3918432,29.2869806 L23.3918432,24.4291827 C23.3918432,23.5348868 24.1168132,22.8099167 25.0111092,22.8099167 Z" id="Rectangle" fill="#FFBE2E" transform="translate(25.011109, 26.858082) rotate(-40.000000) translate(-25.011109, -26.858082) "></path>
                    </g>
                </g>
            </g>
        </g>
    </g>
</svg>