<?xml version="1.0" encoding="UTF-8"?>
<svg width="40px" height="40px" viewBox="0 0 40 40" version="1.1" xmlns="http://www.w3.org/2000/svg" xmlns:xlink="http://www.w3.org/1999/xlink">
    <title>doj-icon-report-crime</title>
    <g id="justice.gov" stroke="none" stroke-width="1" fill="none" fill-rule="evenodd">
        <g id="doj-icon-example" transform="translate(-362.000000, -347.000000)">
            <g id="action-center---white-bg" transform="translate(27.125226, 47.000000)">
                <g id="column-2" transform="translate(334.874774, 82.000000)">
                    <g id="doj-icon-report-crime" transform="translate(0.000000, 218.000000)">
                        <circle id="Oval" fill="#162E51" cx="20" cy="20" r="20"></circle>
                        <g id="components/icons/report" transform="translate(8.000000, 8.000000)" fill="#FFBE2E">
                            <path d="M15.73,3 L8.27,3 L3,8.27 L3,15.73 L8.27,21 L15.73,21 L21,15.73 L21,8.27 L15.73,3 Z M12,17.3 C11.28,17.3 10.7,16.72 10.7,16 C10.7,15.28 11.28,14.7 12,14.7 C12.72,14.7 13.3,15.28 13.3,16 C13.3,16.72 12.72,17.3 12,17.3 Z M13,13 L11,13 L11,7 L13,7 L13,13 Z" id="Fill"></path>
                        </g>
                    </g>
                </g>
            </g>
        </g>
    </g>
</svg>