<?xml version="1.0" encoding="UTF-8"?>
<svg width="40px" height="40px" viewBox="0 0 40 40" version="1.1" xmlns="http://www.w3.org/2000/svg" xmlns:xlink="http://www.w3.org/1999/xlink">
    <title>doj-icon-scales-justice</title>
    <g id="justice.gov" stroke="none" stroke-width="1" fill="none" fill-rule="evenodd">
        <g id="doj-icon-example" transform="translate(-362.000000, -275.000000)">
            <g id="action-center---white-bg" transform="translate(27.125226, 47.000000)">
                <g id="column-2" transform="translate(334.874774, 82.000000)">
                    <g id="doj-icon-scales-justice" transform="translate(0.000000, 146.000000)">
                        <circle id="Oval" fill="#162E51" cx="20" cy="20" r="20"></circle>
                        <rect id="Rectangle" fill="#FFBE2E" x="10" y="28" width="19" height="2" rx="1"></rect>
                        <rect id="Rectangle-Copy-17" fill="#FFBE2E" x="11" y="27" width="17" height="2" rx="1"></rect>
                        <rect id="Rectangle-Copy-18" fill="#FFBE2E" x="19" y="8" width="2" height="20" rx="1"></rect>
                        <rect id="Rectangle-Copy-19" fill="#FFBE2E" x="11" y="11" width="18" height="2" rx="1"></rect>
                        <path d="M27.8942786,12.0496292 C28.1549333,12.0664984 28.2096765,12.1212417 28.2349484,12.1907392 L28.2349484,12.1907392 L30.8072484,19.2645642 C30.8308408,19.3294434 30.8259023,19.3977432 30.7988458,19.4557214 C30.7835358,19.4885285 30.7611438,19.5180308 30.7328318,19.5417383 L30.7328318,19.5417383 L25.4277,19.6 C25.3586644,19.6 25.2961644,19.5720178 25.2509233,19.5267767 C25.2255336,19.501387 25.2055797,19.4705616 25.192957,19.4361958 L25.192957,19.4361958 L27.7650516,12.1907392 C27.7886441,12.12586 27.8363005,12.0766856 27.8942786,12.0496292 Z" id="Triangle" stroke="#FFBE2E" stroke-width="1.5"></path>
                        <path d="M11.8942786,12.0496292 C12.1549333,12.0664984 12.2096765,12.1212417 12.2349484,12.1907392 L12.2349484,12.1907392 L14.8072484,19.2645642 C14.8308408,19.3294434 14.8259023,19.3977432 14.7988458,19.4557214 C14.7835358,19.4885285 14.7611438,19.5180308 14.7328318,19.5417383 L14.7328318,19.5417383 L9.42769999,19.6 C9.3586644,19.6 9.2961644,19.5720178 9.2509233,19.5267767 C9.22553362,19.501387 9.20557971,19.4705616 9.19295697,19.4361958 L9.19295697,19.4361958 L11.7650516,12.1907392 C11.7886441,12.12586 11.8363005,12.0766856 11.8942786,12.0496292 Z" id="Triangle-Copy" stroke="#FFBE2E" stroke-width="1.5"></path>
                        <path d="M24.4,19 L31.6,19 L31.6,20.5 C31.6,21.8807119 30.4807119,23 29.1,23 L26.9,23 C25.5192881,23 24.4,21.8807119 24.4,20.5 L24.4,19 L24.4,19 Z" id="Rectangle" fill="#FFBE2E"></path>
                        <path d="M8.4,19 L15.6,19 L15.6,20.5 C15.6,21.8807119 14.4807119,23 13.1,23 L10.9,23 C9.51928813,23 8.4,21.8807119 8.4,20.5 L8.4,19 L8.4,19 Z" id="Rectangle-Copy-20" fill="#FFBE2E"></path>
                    </g>
                </g>
            </g>
        </g>
    </g>
</svg>